<?xml version="1.0" encoding="utf-8"?><svg xmlns="http://www.w3.org/2000/svg" xmlns:xlink="http://www.w3.org/1999/xlink"><symbol viewBox="0 0 44 15" fill="none" id="Arrow" xmlns="http://www.w3.org/2000/svg"><path d="M43.707 8.207a1 1 0 0 0 0-1.414L37.343.429a1 1 0 1 0-1.414 1.414L41.586 7.5l-5.657 5.657a1 1 0 0 0 1.414 1.414l6.364-6.364ZM0 8.5h43v-2H0v2Z" fill="currentColor"/></symbol><symbol fill="none" viewBox="0 0 44 16" id="Arrownew" xmlns="http://www.w3.org/2000/svg"><path d="M43.707 8.707a1 1 0 0 0 0-1.414L37.343.929a1 1 0 1 0-1.414 1.414L41.586 8l-5.657 5.657a1 1 0 0 0 1.414 1.414l6.364-6.364ZM0 9h43V7H0v2Z" fill="currentColor"/></symbol><symbol fill="none" viewBox="0 0 24 24" id="facebook" xmlns="http://www.w3.org/2000/svg"><g clip-path="url(#ca)"><path d="M15.402 21v-6.966h2.333l.349-2.708h-2.682V9.598c0-.784.218-1.319 1.342-1.319h1.434V5.857a19.188 19.188 0 0 0-2.09-.107c-2.067 0-3.482 1.262-3.482 3.58v1.996h-2.338v2.708h2.338V21H4a1 1 0 0 1-1-1V4a1 1 0 0 1 1-1h16a1 1 0 0 1 1 1v16a1 1 0 0 1-1 1h-4.598Z" fill="currentColor"/></g><defs><clipPath id="ca"><path fill="currentColor" d="M0 0h24v24H0z"/></clipPath></defs></symbol><symbol fill="none" viewBox="0 0 24 24" id="instagram" xmlns="http://www.w3.org/2000/svg"><g clip-path="url(#da)"><path d="M12 2c2.717 0 3.056.01 4.122.06 1.065.05 1.79.217 2.428.465.66.254 1.216.598 1.772 1.153.509.5.902 1.105 1.153 1.772.247.637.415 1.363.465 2.428.047 1.066.06 1.405.06 4.122 0 2.717-.01 3.056-.06 4.122-.05 1.065-.218 1.79-.465 2.428a4.883 4.883 0 0 1-1.153 1.772c-.5.508-1.105.902-1.772 1.153-.637.247-1.363.415-2.428.465-1.066.047-1.405.06-4.122.06-2.717 0-3.056-.01-4.122-.06-1.065-.05-1.79-.218-2.428-.465a4.89 4.89 0 0 1-1.772-1.153 4.904 4.904 0 0 1-1.153-1.772c-.248-.637-.415-1.363-.465-2.428C2.013 15.056 2 14.717 2 12c0-2.717.01-3.056.06-4.122.05-1.066.217-1.79.465-2.428a4.88 4.88 0 0 1 1.153-1.772A4.897 4.897 0 0 1 5.45 2.525c.638-.248 1.362-.415 2.428-.465C8.944 2.013 9.283 2 12 2Zm0 5a5 5 0 1 0 0 10 5 5 0 0 0 0-10Zm6.5-.25a1.25 1.25 0 1 0-2.5 0 1.25 1.25 0 0 0 2.5 0ZM12 9a3 3 0 1 1 0 6 3 3 0 0 1 0-6Z" fill="currentColor"/></g><defs><clipPath id="da"><path fill="currentColor" d="M0 0h24v24H0z"/></clipPath></defs></symbol><symbol fill="none" viewBox="0 0 24 24" id="log-in" xmlns="http://www.w3.org/2000/svg"><path d="M15 3h4a2 2 0 0 1 2 2v14a2 2 0 0 1-2 2h-4" stroke="currentColor" stroke-width="2" stroke-linecap="round" stroke-linejoin="round"/><path d="m10 17 5-5-5-5" stroke="currentColor" stroke-linecap="round" stroke-linejoin="round"/><path d="M15 12H3" stroke="currentColor" stroke-width="2" stroke-linecap="round" stroke-linejoin="round"/></symbol><symbol fill="none" viewBox="0 0 24 24" id="search" xmlns="http://www.w3.org/2000/svg"><path d="M13 19a8 8 0 1 1 0-16 8 8 0 0 1 0 16ZM3 21l4.35-4.35" stroke="currentColor" stroke-width="2" stroke-linecap="round" stroke-linejoin="round"/></symbol><symbol fill="none" viewBox="0 0 26 16" id="slider-arrow-left" xmlns="http://www.w3.org/2000/svg"><path d="M.293 7.293a1 1 0 0 0 0 1.414l6.364 6.364a1 1 0 0 0 1.414-1.414L2.414 8l5.657-5.657A1 1 0 0 0 6.657.93L.293 7.293ZM26 7H1v2h25V7Z" fill="#899D9D"/></symbol><symbol fill="none" viewBox="0 0 26 16" id="slider-arrow-right" xmlns="http://www.w3.org/2000/svg"><path d="M25.707 8.707a1 1 0 0 0 0-1.414L19.343.929a1 1 0 1 0-1.414 1.414L23.586 8l-5.657 5.657a1 1 0 0 0 1.414 1.414l6.364-6.364ZM0 9h25V7H0v2Z" fill="#899D9D"/></symbol><symbol fill="none" viewBox="0 0 24 24" id="twitter" xmlns="http://www.w3.org/2000/svg"><g clip-path="url(#ia)"><path d="M22.162 5.656a8.383 8.383 0 0 1-2.402.658A4.196 4.196 0 0 0 21.6 4c-.82.488-1.719.83-2.656 1.015a4.182 4.182 0 0 0-7.126 3.814 11.874 11.874 0 0 1-8.62-4.37 4.168 4.168 0 0 0-.566 2.103c0 1.45.738 2.73 1.86 3.48a4.168 4.168 0 0 1-1.894-.522v.052a4.185 4.185 0 0 0 3.355 4.1 4.208 4.208 0 0 1-1.89.073A4.185 4.185 0 0 0 7.97 16.65a8.393 8.393 0 0 1-6.191 1.732 11.83 11.83 0 0 0 6.41 1.88c7.693 0 11.9-6.373 11.9-11.9 0-.18-.005-.362-.013-.54a8.495 8.495 0 0 0 2.087-2.165l-.001-.001Z" fill="currentColor"/></g><defs><clipPath id="ia"><path fill="currentColor" d="M0 0h24v24H0z"/></clipPath></defs></symbol><symbol fill="none" viewBox="0 0 20 16" id="youtube" xmlns="http://www.w3.org/2000/svg"><path d="M19.543 2.498C20 4.28 20 8 20 8s0 3.72-.457 5.502c-.254.985-.997 1.76-1.938 2.022C15.896 16 10 16 10 16s-5.893 0-7.605-.476c-.945-.266-1.687-1.04-1.938-2.022C0 11.72 0 8 0 8s0-3.72.457-5.502c.254-.985.997-1.76 1.938-2.022C4.107 0 10 0 10 0s5.896 0 7.605.476c.945.266 1.687 1.04 1.938 2.022ZM8 11.5 14 8 8 4.5v7Z" fill="currentColor"/></symbol></svg>